:SAMPLES-PER-SECOND 30
:FULLY-SPECIFIED
:DEGREES
162
root  34.95719489 36.49600472 -14.95951705 8.368880272 -9.065786362 4.57068491
lowerback  -7.441959858 -1.231770039 -0.9440827966
upperback  -3.599593401 -1.150679946 -3.71604991
thorax  0.3935819268 -0.4297280014 -3.392149925
lowerneck  1.450539947 -20.03249931 -14.16919994
upperneck  11.46469975 -28.62560272 17.11000061
head  7.851753712 -13.53016663 4.779644012
lclavicle  0 -4.497500157e-015 -2.743230041e-014
lhumerus  -46.25790024 26.28059959 65.29399872
lradius  -0.04183981195 -6.507048965e-006 30.24169922
lwrist  4.824992743e-007 -3.790274832e-007 -27.5984993
lhand  -4.452818444e-031 -37.53239822 -10.84309959
lfingers  90 7.125020027 -90
lthumb  95.1505054 -25.65221892 101.7615835
rclavicle  0 -4.497500157e-015 -2.743230041e-014
rhumerus  -19.67580223 -40.09870148 -8.138129234
rradius  -5.16745672e-007 2.214343908e-008 43.4253006
rwrist  -7.499573258e-005 0.03438235447 -161.6609955
rhand  -1.772708501e-031 5.146309853 -7.215970039
rfingers  -90 -7.125020027 -90
rthumb  -84.73383526 -8.853072359 -59.08255118
rfemur  -13.64457798 17.22011566 11.25364208
rtibia  -1.704561353 -2.324260235 21.84728241
rfoot  0.2503579259 -23.67647362 -33.76910782
rtoes  3.958235528 19.62013791 -101.6438865
lfemur  -8.681400299 -17.0707531 -21.83326912
ltibia  2.210165262 -2.94932723 15.61837292
lfoot  1.197279215 -20.44410515 39.93334579
ltoes  -8.631130548 -18.11091076 -116.0262423
163
root  34.96111772 36.49601974 -14.96025746 8.362942696 -9.053203583 4.580603123
lowerback  -7.428224087 -1.225314498 -0.9291768074
upperback  -3.598409414 -1.143229961 -3.725460052
thorax  0.3937124908 -0.426256001 -3.408910036
lowerneck  1.495679975 -20.01939964 -14.12300014
upperneck  11.39491177 -28.60333252 17.12861633
head  7.813879967 -13.52449989 4.793550014
lclavicle  0 -4.497500157e-015 -2.743230041e-014
lhumerus  -46.25479889 26.25119972 65.27700043
lradius  -0.04152381793 -6.507048965e-006 30.25143623
lwrist  4.824992743e-007 -3.790274832e-007 -27.56019974
lhand  -0 -37.53929901 -10.82390022
lfingers  90 7.125020027 -90
lthumb  95.1494569 -25.63321165 101.7671459
rclavicle  0 -4.497500157e-015 -2.743230041e-014
rhumerus  -19.65209961 -40.30619812 -7.993538857
rradius  -5.16745672e-007 2.214343908e-008 42.88370132
rwrist  -7.499573258e-005 0.03438235447 -161.6000061
rhand  -1.771676022e-031 4.761189938 -7.226799965
rfingers  -90 -7.125020027 -90
rthumb  -84.83123895 -8.819081271 -59.45895034
rfemur  -13.64673328 17.21798134 11.23976231
rtibia  -1.704226732 -2.323014021 21.86195564
rfoot  0.2427495122 -23.66921234 -33.77400589
rtoes  3.924052621 19.62674302 -101.5421023
lfemur  -8.649585724 -17.06114006 -21.85721016
ltibia  2.233362913 -2.917954206 15.57301903
lfoot  1.216033816 -20.4986515 39.97833633
ltoes  -8.671977748 -18.09189704 -116.1577106
164
root  34.96392017 36.49627806 -14.96079362 8.355564117 -9.045498848 4.582624435
lowerback  -7.421029091 -1.216028571 -0.9242933989
upperback  -3.597029209 -1.130460024 -3.736069918
thorax  0.3944860995 -0.4197860062 -3.419640064
lowerneck  1.486500025 -20.03170013 -14.11209965
upperneck  11.41443443 -28.62200546 17.13032532
head  7.824110031 -13.5309 4.786220074
lclavicle  0 -4.497500157e-015 -2.743230041e-014
lhumerus  -46.2779007 26.31030083 65.21150208
lradius  -0.04119974375 -6.507048965e-006 30.24454689
lwrist  4.824992743e-007 -3.790274832e-007 -27.62940025
lhand  -4.452728941e-031 -37.53089905 -10.83979988
lfingers  90 7.125020027 -90
lthumb  95.14906688 -25.64901517 101.7597038
rclavicle  0 -4.497500157e-015 -2.743230041e-014
rhumerus  -19.59180069 -40.49589539 -7.881361485
rradius  -5.16745672e-007 2.214343908e-008 42.38280106
rwrist  -7.499573258e-005 0.03438235447 -161.3589935
rhand  -1.77153772e-031 4.707180023 -7.083409786
rfingers  -90 -7.125020027 -90
rthumb  -84.77039111 -8.939190492 -59.50033173
rfemur  -13.64283085 17.24287033 11.2343626
rtibia  -1.70296979 -2.325088024 21.86664772
rfoot  0.2302554846 -23.67673874 -33.80698395
rtoes  3.916225121 19.62824709 -101.5187994
lfemur  -8.620052338 -17.06875801 -21.87165642
ltibia  2.24662137 -2.909248352 15.53924274
lfoot  1.22097826 -20.50257301 40.01078033
ltoes  -8.686863001 -18.08494019 -116.2056527
165
root  34.96516671 36.49643125 -14.96136282 8.340892792 -9.006612778 4.572332382
lowerback  -7.4223032 -1.21073246 -0.9294490814
upperback  -3.595609903 -1.121620059 -3.751660109
thorax  0.3943180144 -0.4148609936 -3.433049917
lowerneck  1.417649984 -20.06579971 -14.16909981
upperneck  11.54220009 -28.68299866 17.13769913
head  7.896639824 -13.54909992 4.771389961
lclavicle  0 -4.497500157e-015 -2.743230041e-014
lhumerus  -46.29669952 26.3390007 65.16030121
lradius  -0.04086718708 -6.507048965e-006 30.25379372
lwrist  4.824992743e-007 -3.790274832e-007 -27.68639946
lhand  -4.449890616e-031 -37.48329926 -10.74600029
lfingers  90 7.125020027 -90
lthumb  95.10549571 -25.55902406 101.699648
rclavicle  0 -4.497500157e-015 -2.743230041e-014
rhumerus  -19.57719994 -40.6012001 -7.699598312
rradius  -5.16745672e-007 2.214343908e-008 41.84420013
rwrist  -7.499573258e-005 0.03438235447 -161.3269958
rhand  -1.771248852e-031 4.592299938 -7.263929844
rfingers  -90 -7.125020027 -90
rthumb  -84.89014486 -8.776284955 -59.62662234
rfemur  -13.61383438 17.24864197 11.25444221
rtibia  -1.701443553 -2.309877872 21.85773849
rfoot  0.2263607383 -23.65983963 -33.83181381
rtoes  3.923732329 19.62680462 -101.5411487
lfemur  -8.580154419 -17.13934135 -21.87833595
ltibia  2.253563166 -2.924978018 15.51565838
lfoot  1.20394659 -20.45055008 40.01724625
ltoes  -8.687314935 -18.08472874 -116.2071085
166
root  34.96784601 36.49775287 -14.96254027 8.32157135 -8.974698067 4.556210995
lowerback  -7.423689842 -1.199609995 -0.9356762171
upperback  -3.594308853 -1.104460001 -3.772789955
thorax  0.3923240006 -0.4055129886 -3.452059984
lowerneck  1.394309998 -20.08510017 -14.18799973
upperneck  11.61190033 -28.71689796 17.13710022
head  7.931819916 -13.55970001 4.762239933
lclavicle  0 -4.497500157e-015 -2.743230041e-014
lhumerus  -46.30260086 26.3757 65.11190033
lradius  -0.04052575305 -6.507048965e-006 30.23317528
lwrist  4.824992743e-007 -3.790274832e-007 -27.73819923
lhand  -4.451004858e-031 -37.5019989 -10.65569973
lfingers  90 7.125020027 -90
lthumb  95.09400318 -25.46987498 101.7109677
rclavicle  0 -4.497500157e-015 -2.743230041e-014
rhumerus  -19.64999771 -40.59609985 -7.517652988
rradius  -5.16745672e-007 2.214343908e-008 41.44850159
rwrist  -7.499573258e-005 0.03438235447 -161.4029999
rhand  -1.771714845e-031 4.776239872 -7.325079918
rfingers  -90 -7.125020027 -90
rthumb  -84.87825141 -8.735379315 -59.45204912
rfemur  -13.58161545 17.2940712 11.27930641
rtibia  -1.699945331 -2.262287378 21.84343529
rfoot  0.2263479233 -23.56772232 -33.87329865
rtoes  3.924586327 19.62664035 -101.5436912
lfemur  -8.605372429 -17.16562653 -21.83870697
ltibia  2.209386826 -2.932929516 15.57697582
lfoot  1.193788409 -20.46173859 40.00074005
ltoes  -8.665033518 -18.09513741 -116.1353509
